<?xml version="1.0" encoding="UTF-8"?>
<!DOCTYPE svg PUBLIC "-//W3C//DTD SVG 1.1//EN" "http://www.w3.org/Graphics/SVG/1.1/DTD/svg11.dtd">
<svg xmlns="http://www.w3.org/2000/svg" version="1.1" width="75px" height="75px" style="shape-rendering:geometricPrecision; text-rendering:geometricPrecision; image-rendering:optimizeQuality; fill-rule:evenodd; clip-rule:evenodd" xmlns:xlink="http://www.w3.org/1999/xlink">
<g><path style="opacity:0.879" fill="#171717" d="M 35.5,-0.5 C 39.5,-0.5 43.5,-0.5 47.5,-0.5C 59.9163,5.58226 68.9163,14.9156 74.5,27.5C 74.5,30.8333 74.5,34.1667 74.5,37.5C 71.9239,38.0561 69.2572,38.2227 66.5,38C 68.6684,39.9705 69.0017,42.1371 67.5,44.5C 67.5,43.8333 67.1667,43.5 66.5,43.5C 66.5,42.8333 66.1667,42.5 65.5,42.5C 65.0269,41.0937 64.0269,40.427 62.5,40.5C 62.5,39.8333 62.1667,39.5 61.5,39.5C 61.1583,38.6618 60.4916,38.3284 59.5,38.5C 59.5,37.8333 59.1667,37.5 58.5,37.5C 58.1583,36.6618 57.4916,36.3284 56.5,36.5C 54.003,32.7171 51.3364,28.8837 48.5,25C 49.8333,24.6667 51.1667,24.3333 52.5,24C 52,23.5 51.5,23 51,22.5C 49.2739,23.5762 47.4406,23.7429 45.5,23C 42.3746,21.5267 39.5413,19.6934 37,17.5C 33.1236,19.0169 29.1236,20.3502 25,21.5C 24.6667,19.8333 24.3333,18.1667 24,16.5C 23.6892,18.556 23.1892,20.556 22.5,22.5C 19.3979,25.7657 16.3979,28.4324 13.5,30.5C 13.9312,31.2935 14.2645,32.1268 14.5,33C 14.2652,36.956 13.2652,40.456 11.5,43.5C 11.1583,42.6618 10.4916,42.3284 9.5,42.5C 9.5,41.8333 9.16667,41.5 8.5,41.5C 8.15829,40.6618 7.49162,40.3284 6.5,40.5C 6.5,39.8333 6.16667,39.5 5.5,39.5C 5.5,38.8333 5.16667,38.5 4.5,38.5C 3.16667,36.5 1.5,34.8333 -0.5,33.5C -0.5,33.1667 -0.5,32.8333 -0.5,32.5C 0.996552,26.3665 3.99655,21.0332 8.5,16.5C 9.25083,17.376 9.75083,18.376 10,19.5C 10.2362,17.236 10.7362,15.0693 11.5,13C 15.9421,9.44563 20.9421,6.94563 26.5,5.5C 27.2508,6.37598 27.7508,7.37598 28,8.5C 28.3742,7.58377 28.8742,6.75044 29.5,6C 31.1012,5.72662 32.6012,5.22662 34,4.5C 34.3333,4.83333 34.6667,5.16667 35,5.5C 35.4955,3.5273 35.6621,1.5273 35.5,-0.5 Z M 39.5,15.5 C 39.7828,14.7109 40.2828,14.0442 41,13.5C 41.5281,14.816 41.0281,15.4827 39.5,15.5 Z M 36.5,26.5 C 38.337,26.6395 38.6704,27.3061 37.5,28.5C 36.7025,28.0431 36.3691,27.3764 36.5,26.5 Z M 22.5,31.5 C 24.4646,31.9483 24.7979,32.9483 23.5,34.5C 22.6143,33.675 22.281,32.675 22.5,31.5 Z M 45.5,38.5 C 47.337,38.6395 47.6704,39.3061 46.5,40.5C 45.7025,40.0431 45.3691,39.3764 45.5,38.5 Z M 62.5,40.5 C 64.0269,40.427 65.0269,41.0937 65.5,42.5C 63.9731,42.573 62.9731,41.9063 62.5,40.5 Z"/></g>
<g><path style="opacity:0.869" fill="#171717" d="M 31.5,21.5 C 43.6535,21.8203 50.6535,27.987 52.5,40C 48.5885,56.4546 38.9219,61.4546 23.5,55C 12.8333,45 12.8333,35 23.5,25C 26.1579,23.522 28.8245,22.3554 31.5,21.5 Z M 36.5,26.5 C 36.3691,27.3764 36.7025,28.0431 37.5,28.5C 38.6704,27.3061 38.337,26.6395 36.5,26.5 Z M 22.5,31.5 C 22.281,32.675 22.6143,33.675 23.5,34.5C 24.7979,32.9483 24.4646,31.9483 22.5,31.5 Z M 33.5,33.5 C 40.1782,35.7025 41.5115,39.5358 37.5,45C 30,46.8333 27.1667,44 29,36.5C 30.4087,35.2189 31.9087,34.2189 33.5,33.5 Z M 45.5,38.5 C 45.3691,39.3764 45.7025,40.0431 46.5,40.5C 47.6704,39.3061 47.337,38.6395 45.5,38.5 Z M 23.5,46.5 C 25.7602,47.2376 25.9269,48.2376 24,49.5C 22.2716,48.6477 22.105,47.6477 23.5,46.5 Z M 37.5,50.5 C 39.4646,50.9483 39.7979,51.9483 38.5,53.5C 37.6143,52.675 37.281,51.675 37.5,50.5 Z"/></g>
<g><path style="opacity:0.891" fill="#171717" d="M -0.5,35.5 C 0.922032,36.925 2.5887,37.925 4.5,38.5C 5.16667,38.5 5.5,38.8333 5.5,39.5C 6.16667,39.5 6.5,39.8333 6.5,40.5C 6.84171,41.3382 7.50838,41.6716 8.5,41.5C 9.16667,41.5 9.5,41.8333 9.5,42.5C 9.84171,43.3382 10.5084,43.6716 11.5,43.5C 13.997,47.2829 16.6636,51.1163 19.5,55C 14.1667,55.6667 8.83333,55.6667 3.5,55C 1.7518,52.9871 0.418466,50.8205 -0.5,48.5C -0.5,44.1667 -0.5,39.8333 -0.5,35.5 Z"/></g>
<g><path style="opacity:0.869" fill="#171717" d="M 56.5,36.5 C 56.8417,37.3382 57.5084,37.6716 58.5,37.5C 59.1667,37.5 59.5,37.8333 59.5,38.5C 59.8417,39.3382 60.5084,39.6716 61.5,39.5C 62.1667,39.5 62.5,39.8333 62.5,40.5C 62.9731,41.9063 63.9731,42.573 65.5,42.5C 66.1667,42.5 66.5,42.8333 66.5,43.5C 67.1667,43.5 67.5,43.8333 67.5,44.5C 67.591,51.8684 64.9243,58.2017 59.5,63.5C 58.7189,62.2713 58.2189,60.938 58,59.5C 57.7744,62.095 57.2744,64.595 56.5,67C 51.899,69.7979 47.2324,72.2979 42.5,74.5C 41.8333,74.5 41.1667,74.5 40.5,74.5C 40.362,70.7139 39.6953,70.7139 38.5,74.5C 34.5,74.5 30.5,74.5 26.5,74.5C 24.6115,73.678 22.6115,72.8447 20.5,72C 19.4019,71.2303 19.4019,70.397 20.5,69.5C 21.4916,69.6716 22.1583,69.3382 22.5,68.5C 23.1667,68.5 23.5,68.1667 23.5,67.5C 24.4916,67.6716 25.1583,67.3382 25.5,66.5C 26.1667,66.5 26.5,66.1667 26.5,65.5C 27.4916,65.6716 28.1583,65.3382 28.5,64.5C 29.1667,64.5 29.5,64.1667 29.5,63.5C 30.1667,63.5 30.5,63.1667 30.5,62.5C 34.3889,61.0736 38.3889,59.7402 42.5,58.5C 43.2978,60.0777 43.7978,61.7444 44,63.5C 44.3763,60.9899 45.2096,58.6565 46.5,56.5C 49.0495,53.3619 51.7162,51.0286 54.5,49.5C 54.0688,48.7065 53.7355,47.8732 53.5,47C 53.7348,43.044 54.7348,39.544 56.5,36.5 Z"/></g>
<g><path style="opacity:0.855" fill="#171717" d="M 30.5,62.5 C 29.8333,62.5 29.5,62.8333 29.5,63.5C 28.8333,63.5 28.5,63.8333 28.5,64.5C 27.5084,64.3284 26.8417,64.6618 26.5,65.5C 25.8333,65.5 25.5,65.8333 25.5,66.5C 24.5084,66.3284 23.8417,66.6618 23.5,67.5C 22.8333,67.5 22.5,67.8333 22.5,68.5C 21.5084,68.3284 20.8417,68.6618 20.5,69.5C 17.1361,70.5114 14.1361,69.6781 11.5,67C 8.11229,64.2141 5.44562,60.8807 3.5,57C 12.6616,55.4285 21.3283,56.5952 29.5,60.5C 30.2975,60.9569 30.6309,61.6236 30.5,62.5 Z"/></g>
</svg>
