<?xml version="1.0" encoding="UTF-8"?>
<!DOCTYPE svg PUBLIC "-//W3C//DTD SVG 1.1//EN" "http://www.w3.org/Graphics/SVG/1.1/DTD/svg11.dtd">
<svg xmlns="http://www.w3.org/2000/svg" version="1.1" width="102px" height="42px" style="shape-rendering:geometricPrecision; text-rendering:geometricPrecision; image-rendering:optimizeQuality; fill-rule:evenodd; clip-rule:evenodd" xmlns:xlink="http://www.w3.org/1999/xlink">
<g><path style="opacity:0.917" fill="#171717" d="M 32.5,-0.5 C 38.1667,-0.5 43.8333,-0.5 49.5,-0.5C 50.1258,3.3754 48.4592,5.20873 44.5,5C 45.3366,6.01127 45.67,7.17793 45.5,8.5C 51.8333,8.5 58.1667,8.5 64.5,8.5C 64.5,9.83333 64.5,11.1667 64.5,12.5C 71.7497,12.1072 78.9164,11.1072 86,9.5C 88.6312,10.9633 90.7979,12.9633 92.5,15.5C 90.3284,15.6759 87.9951,15.8425 85.5,16C 78.8333,19.6667 72.1667,23.3333 65.5,27C 64.5308,31.7367 64.1975,36.57 64.5,41.5C 48.5,41.5 32.5,41.5 16.5,41.5C 16.6646,38.4816 16.498,35.4816 16,32.5C 9.30793,28.3066 3.80793,22.9733 -0.5,16.5C -0.5,14.1667 -0.5,11.8333 -0.5,9.5C 1.91128,8.00705 4.57794,7.00705 7.5,6.5C 17.0706,8.19567 26.7373,8.86234 36.5,8.5C 36.5,7.16667 36.5,5.83333 36.5,4.5C 32.4635,4.7179 31.1302,3.05123 32.5,-0.5 Z M 3.5,11.5 C 7.76746,11.203 11.9341,11.5363 16,12.5C 16.6667,17.5 16.6667,22.5 16,27.5C 9.70781,23.7213 5.54115,18.388 3.5,11.5 Z M 40.5,15.5 C 46.4384,20.6942 48.2717,27.0275 46,34.5C 39.4218,38.4031 35.2551,36.5698 33.5,29C 34.9181,23.9963 37.2514,19.4963 40.5,15.5 Z"/></g>
<g><path style="opacity:0.844" fill="#171717" d="M 101.5,29.5 C 101.5,32.8333 101.5,36.1667 101.5,39.5C 100.29,39.9321 99.2905,40.5987 98.5,41.5C 95.8333,41.5 93.1667,41.5 90.5,41.5C 88.1154,39.3976 86.7821,36.7309 86.5,33.5C 87.4576,27.7145 89.9576,22.7145 94,18.5C 97.0175,21.8861 99.5175,25.5527 101.5,29.5 Z"/></g>
</svg>
