<?xml version="1.0" encoding="UTF-8"?>
<!DOCTYPE svg PUBLIC "-//W3C//DTD SVG 1.1//EN" "http://www.w3.org/Graphics/SVG/1.1/DTD/svg11.dtd">
<svg xmlns="http://www.w3.org/2000/svg" version="1.1" width="84px" height="85px" style="shape-rendering:geometricPrecision; text-rendering:geometricPrecision; image-rendering:optimizeQuality; fill-rule:evenodd; clip-rule:evenodd" xmlns:xlink="http://www.w3.org/1999/xlink">
<g><path style="opacity:0.802" fill="#171717" d="M 32.5,-0.5 C 38.8333,-0.5 45.1667,-0.5 51.5,-0.5C 53.6843,0.266269 56.0177,0.932936 58.5,1.5C 61.4127,3.90098 61.0794,5.23432 57.5,5.5C 57.78,8.27237 57.1134,10.7724 55.5,13C 46.1667,13.6667 36.8333,13.6667 27.5,13C 25.7215,10.8646 25.0548,8.36456 25.5,5.5C 24.5,5.5 23.5,5.5 22.5,5.5C 22.2965,3.60963 22.9632,2.10963 24.5,1C 27.3647,0.817095 30.0314,0.317095 32.5,-0.5 Z"/></g>
<g><path style="opacity:0.764" fill="#171717" d="M -0.5,26.5 C -0.5,25.1667 -0.5,23.8333 -0.5,22.5C 2.31489,21.2154 3.14823,19.2154 2,16.5C 3.68375,14.6487 5.51708,12.982 7.5,11.5C 8.16667,11.8333 8.83333,12.1667 9.5,12.5C 11.2525,10.7389 13.2525,9.40558 15.5,8.5C 17.0293,8.52884 18.196,9.19551 19,10.5C 20.5445,9.17875 21.7112,9.51208 22.5,11.5C 15.848,18.6523 9.01468,25.6523 2,32.5C 0.318055,31.1354 0.151389,29.6354 1.5,28C 0.955796,27.2828 0.28913,26.7828 -0.5,26.5 Z"/></g>
<g><path style="opacity:0.778" fill="#171717" d="M 83.5,22.5 C 83.5,23.8333 83.5,25.1667 83.5,26.5C 80.8333,27.5 80.8333,28.5 83.5,29.5C 83.5,29.8333 83.5,30.1667 83.5,30.5C 82.5416,30.9528 81.7083,31.6195 81,32.5C 73.9853,25.6523 67.152,18.6523 60.5,11.5C 61.2888,9.51208 62.4555,9.17875 64,10.5C 64.804,9.19551 65.9707,8.52884 67.5,8.5C 69.8792,9.44194 72.0459,10.7753 74,12.5C 74.414,12.0426 74.914,11.7093 75.5,11.5C 77.6499,13.1491 79.6499,14.9824 81.5,17C 79.4755,19.301 80.1421,21.1343 83.5,22.5 Z"/></g>
<g><path style="opacity:0.83" fill="#171717" d="M 21.5,14.5 C 23.7157,15.2026 25.549,16.5359 27,18.5C 27.3742,17.5838 27.8742,16.7504 28.5,16C 30.4727,15.5045 32.4727,15.3379 34.5,15.5C 34.5,16.5 34.5,17.5 34.5,18.5C 35.5,18.5 36.5,18.5 37.5,18.5C 37.5,17.5 37.5,16.5 37.5,15.5C 40.1667,15.5 42.8333,15.5 45.5,15.5C 45.5,16.8333 45.5,18.1667 45.5,19.5C 46.5,19.5 47.5,19.5 48.5,19.5C 48.5,18.1667 48.5,16.8333 48.5,15.5C 51.6021,15.154 54.4355,15.8207 57,17.5C 58.1133,15.6707 59.6133,14.8374 61.5,15C 67,20.5 72.5,26 78,31.5C 78.2991,35.2029 76.4658,37.0362 72.5,37C 73,37.5 73.5,38 74,38.5C 75.0113,37.6634 76.1779,37.33 77.5,37.5C 78.2412,46.1615 74.7412,48.8282 67,45.5C 66.6667,45.8333 66.3333,46.1667 66,46.5C 60.1767,41.9217 54.1767,37.5884 48,33.5C 47.8333,34 47.6667,34.5 47.5,35C 52.3929,38.7042 57.2262,42.5375 62,46.5C 62.3333,47.8333 62.6667,49.1667 63,50.5C 65.1529,48.5561 67.6529,48.0561 70.5,49C 75,52.1667 78.8333,56 82,60.5C 82.8249,62.7008 82.3249,64.5341 80.5,66C 78.1902,66.4966 75.8568,66.6633 73.5,66.5C 73.6476,69.3523 72.3143,71.019 69.5,71.5C 67.3189,70.8786 64.9856,70.8786 62.5,71.5C 60.6803,71.3507 59.1803,70.6841 58,69.5C 57.6258,70.4162 57.1258,71.2496 56.5,72C 46.5056,72.4998 36.5056,72.6665 26.5,72.5C 26.6495,71.448 26.4828,70.448 26,69.5C 24.9914,70.6582 23.6581,71.3248 22,71.5C 19.2925,70.4606 16.6259,70.4606 14,71.5C 11.367,70.9106 10.2003,69.244 10.5,66.5C 7.31479,66.9804 4.48146,66.3137 2,64.5C 1.33333,63.1667 1.33333,61.8333 2,60.5C 5.7597,55.3175 9.7597,50.3175 14,45.5C 14.4512,47.9288 15.2845,48.0955 16.5,46C 14.6063,44.9207 14.273,43.5874 15.5,42C 12.8281,42.5829 10.8281,41.4162 9.5,38.5C 9.70931,37.914 10.0426,37.414 10.5,37C 7.4413,36.9423 5.10797,35.609 3.5,33C 9.7028,26.9648 15.7028,20.7981 21.5,14.5 Z M 18.5,21.5 C 20.3841,21.7118 21.7174,22.7118 22.5,24.5C 20.1833,27.3174 17.6833,29.9841 15,32.5C 13.8333,31.3333 12.6667,30.1667 11.5,29C 14.0386,26.6303 16.3719,24.1303 18.5,21.5 Z M 62.5,21.5 C 65.8991,23.3883 68.8991,25.8883 71.5,29C 70.5342,30.6779 69.2009,31.3446 67.5,31C 65.1667,28.6667 62.8333,26.3333 60.5,24C 61.3805,23.2917 62.0472,22.4584 62.5,21.5 Z M 51.5,27.5 C 53.4646,27.9483 53.7979,28.9483 52.5,30.5C 51.6143,29.675 51.281,28.675 51.5,27.5 Z M 43.5,33.5 C 39.9997,33.4954 38.4997,35.1621 39,38.5C 43.152,40.4919 44.9854,39.1585 44.5,34.5C 45.6129,35.9464 45.7796,37.6131 45,39.5C 43.0249,40.478 41.3582,41.8113 40,43.5C 39.228,43.3552 38.5613,43.0219 38,42.5C 37.5931,45.682 37.0931,48.8486 36.5,52C 36.8333,52.8333 37.1667,53.6667 37.5,54.5C 46.6151,51.2458 51.6151,54.5792 52.5,64.5C 54.8333,63.1667 57.1667,61.8333 59.5,60.5C 60.8962,58.0284 61.7296,55.3617 62,52.5C 61.9369,55.7672 63.4369,57.9339 66.5,59C 65.3774,60.0437 64.0441,60.7104 62.5,61C 61.0753,62.3619 60.242,63.8619 60,65.5C 59.6924,64.6919 59.1924,64.0253 58.5,63.5C 54.3403,65.4125 50.3403,67.5791 46.5,70C 39.3757,71.8766 35.0424,69.2099 33.5,62C 34.8111,53.4969 35.1444,44.9969 34.5,36.5C 35.4404,31.3841 38.4404,29.2174 43.5,30C 39.7771,31.0391 39.7771,32.2058 43.5,33.5 Z M 67.5,42.5 C 68.0768,41.2267 68.7435,41.2267 69.5,42.5C 69.0302,43.463 68.3635,43.463 67.5,42.5 Z M 27.5,43.5 C 31.1729,44.7076 31.3396,46.3743 28,48.5C 26.2116,46.9769 26.0449,45.3102 27.5,43.5 Z M 20.5,48.5 C 21.6129,49.9464 21.7796,51.6131 21,53.5C 19.1217,55.0429 17.6217,56.8762 16.5,59C 15.1667,59.6667 13.8333,59.6667 12.5,59C 15.3826,55.6235 18.0493,52.1235 20.5,48.5 Z M 66.5,51.5 C 67.5,51.5 68.5,51.5 69.5,51.5C 69.4261,55.5412 68.0928,56.2079 65.5,53.5C 65.8627,52.8165 66.1961,52.1499 66.5,51.5 Z"/></g>
<g><path style="opacity:0.72" fill="#171717" d="M 43.5,33.5 C 43.5,34.1667 43.8333,34.5 44.5,34.5C 44.9854,39.1585 43.152,40.4919 39,38.5C 38.4997,35.1621 39.9997,33.4954 43.5,33.5 Z"/></g>
<g><path style="opacity:0.688" fill="#171717" d="M 37.5,56.5 C 40.3351,57.7731 43.1685,58.7731 46,59.5C 46.6514,61.235 46.4847,62.9017 45.5,64.5C 47.3348,65.4277 47.6682,66.5944 46.5,68C 36.6991,69.4026 33.6991,65.5693 37.5,56.5 Z"/></g>
<g><path style="opacity:0.922" fill="#171717" d="M 55.5,84.5 C 53.1667,84.5 50.8333,84.5 48.5,84.5C 48.5,83.1667 48.5,81.8333 48.5,80.5C 47.5,80.5 46.5,80.5 45.5,80.5C 45.5,81.8333 45.5,83.1667 45.5,84.5C 42.8333,84.5 40.1667,84.5 37.5,84.5C 37.5,83.1667 37.5,81.8333 37.5,80.5C 36.5,80.5 35.5,80.5 34.5,80.5C 34.5,81.8333 34.5,83.1667 34.5,84.5C 32.1667,84.5 29.8333,84.5 27.5,84.5C 26.6561,80.9009 26.3227,77.2343 26.5,73.5C 36.5,73.5 46.5,73.5 56.5,73.5C 56.6773,77.2343 56.3439,80.9009 55.5,84.5 Z"/></g>
</svg>
