<?xml version="1.0" encoding="UTF-8"?>
<!DOCTYPE svg PUBLIC "-//W3C//DTD SVG 1.1//EN" "http://www.w3.org/Graphics/SVG/1.1/DTD/svg11.dtd">
<svg xmlns="http://www.w3.org/2000/svg" version="1.1" width="74px" height="76px" style="shape-rendering:geometricPrecision; text-rendering:geometricPrecision; image-rendering:optimizeQuality; fill-rule:evenodd; clip-rule:evenodd" xmlns:xlink="http://www.w3.org/1999/xlink">
<g><path style="opacity:0.849" fill="#fefffe" d="M 5.5,-0.5 C 10.1667,-0.5 14.8333,-0.5 19.5,-0.5C 19.3259,1.86105 18.9926,4.19438 18.5,6.5C 36.8333,6.5 55.1667,6.5 73.5,6.5C 73.5,29.5 73.5,52.5 73.5,75.5C 48.8333,75.5 24.1667,75.5 -0.5,75.5C -0.5,52.5 -0.5,29.5 -0.5,6.5C 1.83333,6.5 4.16667,6.5 6.5,6.5C 6.52801,4.41764 5.86135,2.5843 4.5,1C 5.05596,0.617425 5.38929,0.117425 5.5,-0.5 Z M 4.5,11.5 C 25.9843,11.012 47.3177,11.512 68.5,13C 57.8333,13.1667 47.1667,13.3333 36.5,13.5C 25.4784,13.4988 14.8118,12.8321 4.5,11.5 Z M 4.5,18.5 C 10.8421,18.3338 17.1754,18.5005 23.5,19C 21.6508,20.093 19.9842,21.4263 18.5,23C 13.8452,23.4992 9.17853,23.6658 4.5,23.5C 4.5,21.8333 4.5,20.1667 4.5,18.5 Z M 48.5,19.5 C 54.979,18.5093 61.6457,18.176 68.5,18.5C 68.5,20.1667 68.5,21.8333 68.5,23.5C 63.8215,23.6658 59.1548,23.4992 54.5,23C 52.5952,21.5787 50.5952,20.412 48.5,19.5 Z M 45.5,21.5 C 40.049,21.1082 36.2157,23.4415 34,28.5C 33.6667,31.5 33.3333,34.5 33,37.5C 31.1667,34.3333 28.6667,31.8333 25.5,30C 22.0437,28.877 19.2103,29.7104 17,32.5C 18.6161,27.2052 22.1161,23.3719 27.5,21C 33.703,18.8572 39.703,19.0238 45.5,21.5 Z M 45.5,21.5 C 56.6714,27.5024 60.3381,36.5024 56.5,48.5C 54.4725,40.1524 49.1392,36.4857 40.5,37.5C 41.9997,35.8214 43.833,34.4881 46,33.5C 49.4395,29.2919 49.2728,25.2919 45.5,21.5 Z M 40.5,24.5 C 39.8333,25.8333 38.8333,26.8333 37.5,27.5C 37.5,25.5 38.5,24.5 40.5,24.5 Z M 4.5,28.5 C 7.57186,28.1826 10.5719,28.5159 13.5,29.5C 12.7542,30.7362 12.4208,32.0695 12.5,33.5C 9.83333,33.5 7.16667,33.5 4.5,33.5C 4.5,31.8333 4.5,30.1667 4.5,28.5 Z M 58.5,29.5 C 61.6248,28.5206 64.9581,28.1872 68.5,28.5C 68.5,30.1667 68.5,31.8333 68.5,33.5C 64.0945,34.2586 60.7611,32.9252 58.5,29.5 Z M 32.5,44.5 C 28.5354,46.9703 25.8687,50.4703 24.5,55C 25.1476,56.4397 25.4809,57.9397 25.5,59.5C 15.9192,53.2637 12.7526,44.597 16,33.5C 18.143,41.9996 23.643,45.6662 32.5,44.5 Z M 4.5,38.5 C 6.83333,38.5 9.16667,38.5 11.5,38.5C 11.5,40.1667 11.5,41.8333 11.5,43.5C 9.16667,43.5 6.83333,43.5 4.5,43.5C 4.5,41.8333 4.5,40.1667 4.5,38.5 Z M 61.5,38.5 C 63.8333,38.5 66.1667,38.5 68.5,38.5C 68.5,40.1667 68.5,41.8333 68.5,43.5C 66.1667,43.5 63.8333,43.5 61.5,43.5C 61.5,41.8333 61.5,40.1667 61.5,38.5 Z M 55.5,50.5 C 51.8147,58.491 45.4814,62.491 36.5,62.5C 33.1864,62.6575 30.1864,61.9908 27.5,60.5C 33.3084,61.3481 37.1417,59.0148 39,53.5C 39.3333,50.5 39.6667,47.5 40,44.5C 41.8324,47.3613 43.9991,49.8613 46.5,52C 49.8231,52.932 52.8231,52.432 55.5,50.5 Z M 4.5,48.5 C 9.6797,47.1906 13.013,49.0239 14.5,54C 11.1322,54.5428 7.79889,54.3761 4.5,53.5C 4.5,51.8333 4.5,50.1667 4.5,48.5 Z M 60.5,48.5 C 63.1667,48.5 65.8333,48.5 68.5,48.5C 68.5,50.5 68.5,52.5 68.5,54.5C 65.1016,54.8204 61.7683,54.487 58.5,53.5C 59.4565,51.9246 60.1231,50.258 60.5,48.5 Z M 4.5,58.5 C 12.1946,57.0825 18.8612,58.9158 24.5,64C 18.1667,64.6667 11.8333,64.6667 5.5,64C 4.59391,62.3005 4.26057,60.4672 4.5,58.5 Z M 54.5,58.5 C 58.5138,58.3345 62.5138,58.5012 66.5,59C 68.1922,60.4007 68.8588,62.2341 68.5,64.5C 61.4921,64.6663 54.4921,64.4996 47.5,64C 50.5952,63.0646 52.9286,61.2313 54.5,58.5 Z M 4.5,68.5 C 25.5106,68.167 46.5106,68.5003 67.5,69.5C 57,69.8333 46.5,70.1667 36,70.5C 25.1447,70.4987 14.6447,69.8321 4.5,68.5 Z"/></g>
</svg>
