<?xml version="1.0" encoding="UTF-8"?>
<!DOCTYPE svg PUBLIC "-//W3C//DTD SVG 1.1//EN" "http://www.w3.org/Graphics/SVG/1.1/DTD/svg11.dtd">
<svg xmlns="http://www.w3.org/2000/svg" version="1.1" width="70px" height="75px" style="shape-rendering:geometricPrecision; text-rendering:geometricPrecision; image-rendering:optimizeQuality; fill-rule:evenodd; clip-rule:evenodd" xmlns:xlink="http://www.w3.org/1999/xlink">
<g><path style="opacity:0.824" fill="#171717" d="M 47.5,-0.5 C 53.5,-0.5 59.5,-0.5 65.5,-0.5C 64.9322,2.75798 64.7655,6.09132 65,9.5C 61.6667,10.5 61.6667,11.5 65,12.5C 66.3566,16.1429 65.1899,18.3096 61.5,19C 63.8852,19.0549 65.2186,20.2216 65.5,22.5C 64.5609,24.7707 63.2276,26.7707 61.5,28.5C 63.5396,31.613 66.2063,33.9464 69.5,35.5C 69.5,37.5 69.5,39.5 69.5,41.5C 68.7109,41.7828 68.0442,42.2828 67.5,43C 59.1733,43.4997 50.84,43.6664 42.5,43.5C 42.5,46.5 42.5,49.5 42.5,52.5C 41.1667,52.5 39.8333,52.5 38.5,52.5C 38.6661,58.1764 38.4994,63.8431 38,69.5C 36.975,71.687 35.475,73.3536 33.5,74.5C 23.5,74.5 13.5,74.5 3.5,74.5C 2.13632,72.8089 0.802988,71.1423 -0.5,69.5C -0.5,48.8333 -0.5,28.1667 -0.5,7.5C 0.646381,5.52496 2.31305,4.02496 4.5,3C 14.1667,2.33333 23.8333,2.33333 33.5,3C 35.5701,3.94758 37.0701,5.44758 38,7.5C 38.4995,13.8246 38.6662,20.1579 38.5,26.5C 39.8333,26.5 41.1667,26.5 42.5,26.5C 42.5,29.1667 42.5,31.8333 42.5,34.5C 44.1667,34.5 45.8333,34.5 47.5,34.5C 45.0703,29.3909 46.4037,25.8909 51.5,24C 50.1667,23.6667 48.8333,23.3333 47.5,23C 45.8603,20.2242 46.527,18.2242 49.5,17C 47.2031,15.7367 46.3698,13.9034 47,11.5C 48.4556,10.0804 49.9556,8.74703 51.5,7.5C 50.8333,6.16667 49.8333,5.16667 48.5,4.5C 47.5481,2.95467 47.2148,1.28801 47.5,-0.5 Z M 6.5,64.5 C 6.63484,58.2341 6.63484,51.9008 6.5,45.5C 6.83339,39.0001 6.83339,32.3334 6.5,25.5C 6.25112,19.0234 6.75112,12.3568 8,5.5C 8.66667,27.5 8.66667,49.5 8,71.5C 7.70964,69.0796 7.20964,66.7463 6.5,64.5 Z M 13.5,7.5 C 12.5876,17.4134 12.5876,27.08 13.5,36.5C 13.1666,43.3334 13.1666,50.0001 13.5,56.5C 12.2248,59.6038 12.2248,62.6038 13.5,65.5C 12.8153,67.4144 12.3153,69.4144 12,71.5C 11.3333,49.5 11.3333,27.5 12,5.5C 12.2784,6.4158 12.7784,7.08247 13.5,7.5 Z M 15.5,34.5 C 16.7866,30.7316 16.7866,27.0649 15.5,23.5C 15.5665,17.433 16.0665,11.433 17,5.5C 17.6667,27.5 17.6667,49.5 17,71.5C 16.7744,68.905 16.2744,66.405 15.5,64C 16.7812,54.0722 16.7812,44.2389 15.5,34.5 Z M 23.5,22.5 C 21.9719,22.4827 21.4719,21.816 22,20.5C 22.7172,21.0442 23.2172,21.7109 23.5,22.5 Z M 33.5,23.5 C 33.2172,24.2891 32.7172,24.9558 32,25.5C 31.4719,24.184 31.9719,23.5173 33.5,23.5 Z M 33.5,33.5 C 33.2172,34.2891 32.7172,34.9558 32,35.5C 31.4719,34.184 31.9719,33.5173 33.5,33.5 Z M 33.5,43.5 C 33.2172,44.2891 32.7172,44.9558 32,45.5C 31.4719,44.184 31.9719,43.5173 33.5,43.5 Z M 23.5,51.5 C 21.9719,51.4827 21.4719,50.816 22,49.5C 22.7172,50.0442 23.2172,50.7109 23.5,51.5 Z M 23.5,62.5 C 21.9719,62.4827 21.4719,61.816 22,60.5C 22.7172,61.0442 23.2172,61.7109 23.5,62.5 Z M 33.5,63.5 C 33.2172,64.2891 32.7172,64.9558 32,65.5C 31.4719,64.184 31.9719,63.5173 33.5,63.5 Z"/></g>
</svg>
