<?xml version="1.0" encoding="UTF-8"?>
<!DOCTYPE svg PUBLIC "-//W3C//DTD SVG 1.1//EN" "http://www.w3.org/Graphics/SVG/1.1/DTD/svg11.dtd">
<svg xmlns="http://www.w3.org/2000/svg" fill="#171717" version="1.1" width="105px" height="91px" style="shape-rendering:geometricPrecision; text-rendering:geometricPrecision; image-rendering:optimizeQuality; fill-rule:evenodd; clip-rule:evenodd" xmlns:xlink="http://www.w3.org/1999/xlink">
<g><path style="opacity:0.864"  d="M 83.5,-0.5 C 85.1667,-0.5 86.8333,-0.5 88.5,-0.5C 89.1534,0.806777 89.8201,2.14011 90.5,3.5C 95.3402,4.02255 100.007,5.02255 104.5,6.5C 104.5,22.1667 104.5,37.8333 104.5,53.5C 103.527,53.9867 102.527,54.4867 101.5,55C 91.1667,55.6667 80.8333,55.6667 70.5,55C 69.3333,54.5 68.5,53.6667 68,52.5C 67.3333,37.5 67.3333,22.5 68,7.5C 68.8333,6.66667 69.6667,5.83333 70.5,5C 74.211,4.82528 77.8776,4.32528 81.5,3.5C 82.1799,2.14011 82.8466,0.806777 83.5,-0.5 Z M 84.5,2.5 C 87.5476,2.49403 88.0476,3.49403 86,5.5C 84.9614,4.75618 84.4614,3.75618 84.5,2.5 Z M 72.5,10.5 C 81.5,10.5 90.5,10.5 99.5,10.5C 99.5,23.8333 99.5,37.1667 99.5,50.5C 90.4789,50.5989 81.4789,50.2655 72.5,49.5C 72.5,36.5 72.5,23.5 72.5,10.5 Z M 77.5,17.5 C 78.2891,17.7828 78.9558,18.2828 79.5,19C 78.184,19.5281 77.5173,19.0281 77.5,17.5 Z M 76.5,28.5 C 77.2506,27.4265 78.2506,27.2599 79.5,28C 78.6477,29.7284 77.6477,29.895 76.5,28.5 Z"/></g>
<g><path style="opacity:0.526" d="M 77.5,15.5 C 82.79,16.7665 83.79,19.5999 80.5,24C 75.5454,25.3758 73.3787,23.5425 74,18.5C 75.1451,17.3636 76.3117,16.3636 77.5,15.5 Z M 77.5,17.5 C 77.5173,19.0281 78.184,19.5281 79.5,19C 78.9558,18.2828 78.2891,17.7828 77.5,17.5 Z"/></g>
<g><path style="opacity:0.732"  d="M 85.5,19.5 C 89.8461,19.3343 94.1794,19.501 98.5,20C 96.3706,21.1033 94.0373,21.6033 91.5,21.5C 89.0478,21.4609 87.0478,20.7943 85.5,19.5 Z"/></g>
<g><path style="opacity:0.519"  d="M 75.5,25.5 C 82.4863,25.331 84.153,28.1643 80.5,34C 73.8362,34.1762 72.1696,31.3429 75.5,25.5 Z M 76.5,28.5 C 77.6477,29.895 78.6477,29.7284 79.5,28C 78.2506,27.2599 77.2506,27.4265 76.5,28.5 Z"/></g>
<g><path style="opacity:0.91" d="M 91.5,90.5 C 85.8333,90.5 80.1667,90.5 74.5,90.5C 73.8592,89.5178 73.1925,88.5178 72.5,87.5C 55.1763,86.3337 37.8429,86.167 20.5,87C 19.695,88.1127 19.0283,89.2794 18.5,90.5C 12.8333,90.5 7.16667,90.5 1.5,90.5C 1.15829,89.6618 0.491622,89.3284 -0.5,89.5C -0.5,83.1667 -0.5,76.8333 -0.5,70.5C 0.117425,70.3893 0.617425,70.056 1,69.5C 1.72023,64.0652 2.8869,58.7318 4.5,53.5C 3.2134,51.8404 1.88006,50.1738 0.5,48.5C 0.97665,47.5224 1.64332,46.6891 2.5,46C 4.83333,45.6667 7.16667,45.3333 9.5,45C 11.7394,39.857 14.7394,35.1903 18.5,31C 20.087,30.1376 21.7536,29.4709 23.5,29C 37.1626,28.5001 50.8293,28.3334 64.5,28.5C 64.5,29.8333 64.5,31.1667 64.5,32.5C 51.1625,32.3334 37.8292,32.5001 24.5,33C 18.8901,36.7286 15.7234,41.8952 15,48.5C 18.758,45.0377 23.258,43.371 28.5,43.5C 32.173,43.9533 35.8396,44.4533 39.5,45C 43.787,49.6559 48.1203,49.6559 52.5,45C 56.4183,43.8436 60.4183,43.3436 64.5,43.5C 64.3347,47.1817 64.5014,50.8484 65,54.5C 65.3076,55.3081 65.8076,55.9747 66.5,56.5C 74.1101,57.4671 81.7767,57.8004 89.5,57.5C 90.8573,64.8613 92.1906,72.1947 93.5,79.5C 93.7019,83.3932 93.0353,87.0598 91.5,90.5 Z M 11.5,60.5 C 25.5881,68.8212 24.5881,71.6545 8.5,69C 6.42366,67.1159 6.09033,64.9492 7.5,62.5C 9.02552,62.0057 10.3588,61.339 11.5,60.5 Z M 78.5,61.5 C 81.2062,61.5751 83.8728,61.9084 86.5,62.5C 86.4348,64.6957 85.7681,66.6957 84.5,68.5C 81.5664,69.4203 78.5664,70.0869 75.5,70.5C 73.5191,70.5629 71.8524,69.8962 70.5,68.5C 73.1864,66.1442 75.853,63.8109 78.5,61.5 Z M 27.5,71.5 C 40.1667,71.5 52.8333,71.5 65.5,71.5C 65.5,73.8333 65.5,76.1667 65.5,78.5C 53.2643,79.4427 41.0976,79.776 29,79.5C 26.379,77.2284 25.879,74.5618 27.5,71.5 Z M 87.5,76.5 C 85.6464,80.9277 82.3131,83.0943 77.5,83C 81.0323,81.0718 84.3656,78.9052 87.5,76.5 Z M 5.5,77.5 C 8.44426,79.3111 11.4443,81.1444 14.5,83C 10.2474,83.2074 7.24743,81.3741 5.5,77.5 Z"/></g>
<g><path style="opacity:0.474" d="M 85.5,28.5 C 90.032,28.0692 94.3654,28.5692 98.5,30C 94.6908,31.5882 90.6908,31.9216 86.5,31C 85.7476,30.3292 85.4142,29.4959 85.5,28.5 Z"/></g>
<g><path style="opacity:0.561"  d="M 75.5,35.5 C 81.2095,34.8672 83.2095,37.2005 81.5,42.5C 74.3449,44.3514 72.3449,42.018 75.5,35.5 Z"/></g>
<g><path style="opacity:0.65" d="M 85.5,38.5 C 89.8839,38.1744 94.2172,38.5078 98.5,39.5C 96.3333,39.8333 94.1667,40.1667 92,40.5C 89.3897,40.4668 87.223,39.8001 85.5,38.5 Z"/></g>
</svg>
