<?xml version="1.0" encoding="UTF-8"?>
<!DOCTYPE svg PUBLIC "-//W3C//DTD SVG 1.1//EN" "http://www.w3.org/Graphics/SVG/1.1/DTD/svg11.dtd">
<svg xmlns="http://www.w3.org/2000/svg" version="1.1" width="70px" height="75px" style="shape-rendering:geometricPrecision; text-rendering:geometricPrecision; image-rendering:optimizeQuality; fill-rule:evenodd; clip-rule:evenodd" xmlns:xlink="http://www.w3.org/1999/xlink">
<g><path style="opacity:0.822" fill="#171717" d="M 3.5,-0.5 C 9.5,-0.5 15.5,-0.5 21.5,-0.5C 21.6602,1.19919 21.4935,2.86586 21,4.5C 19.5134,5.15516 18.3467,6.15516 17.5,7.5C 19.6264,8.90077 21.2931,10.7341 22.5,13C 21.8993,14.605 20.8993,15.9384 19.5,17C 22.1997,17.9492 23.033,19.7825 22,22.5C 20.6012,23.2266 19.1012,23.7266 17.5,24C 22.5963,25.8909 23.9297,29.3909 21.5,34.5C 23.1667,34.5 24.8333,34.5 26.5,34.5C 26.5,31.8333 26.5,29.1667 26.5,26.5C 27.8333,26.5 29.1667,26.5 30.5,26.5C 30.3338,20.1579 30.5005,13.8246 31,7.5C 32.1667,5.66667 33.6667,4.16667 35.5,3C 44.8333,2.33333 54.1667,2.33333 63.5,3C 66.1459,3.80409 68.1459,5.30409 69.5,7.5C 69.5,28.1667 69.5,48.8333 69.5,69.5C 68.197,71.1423 66.8637,72.8089 65.5,74.5C 55.5,74.5 45.5,74.5 35.5,74.5C 33.525,73.3536 32.025,71.687 31,69.5C 30.5006,63.8431 30.3339,58.1764 30.5,52.5C 29.1667,52.5 27.8333,52.5 26.5,52.5C 26.5,49.5 26.5,46.5 26.5,43.5C 18.16,43.6664 9.82667,43.4997 1.5,43C 0.955796,42.2828 0.28913,41.7828 -0.5,41.5C -0.5,39.5 -0.5,37.5 -0.5,35.5C 2.79375,33.9464 5.46041,31.613 7.5,28.5C 6.16667,26.8333 4.83333,25.1667 3.5,23.5C 3.63163,21.399 4.63163,19.899 6.5,19C 3.69364,17.6949 2.86031,15.5282 4,12.5C 7.33333,11.5 7.33333,10.5 4,9.5C 4.23448,6.09132 4.06782,2.75798 3.5,-0.5 Z M 53.5,23.5 C 52.2134,27.0649 52.2134,30.7316 53.5,34.5C 52.2188,44.2389 52.2188,54.0722 53.5,64C 52.7256,66.405 52.2256,68.905 52,71.5C 51.3333,49.5 51.3333,27.5 52,5.5C 52.9335,11.433 53.4335,17.433 53.5,23.5 Z M 55.5,65.5 C 56.7752,62.6038 56.7752,59.6038 55.5,56.5C 56.5274,40.1069 56.5274,23.7736 55.5,7.5C 56.2216,7.08247 56.7216,6.4158 57,5.5C 57.6667,27.5 57.6667,49.5 57,71.5C 56.6847,69.4144 56.1847,67.4144 55.5,65.5 Z M 62.5,25.5 C 61.1914,32.2656 61.1914,38.9322 62.5,45.5C 62.3652,51.9008 62.3652,58.2341 62.5,64.5C 61.7904,66.7463 61.2904,69.0796 61,71.5C 60.3333,49.5 60.3333,27.5 61,5.5C 62.2489,12.3568 62.7489,19.0234 62.5,25.5 Z M 45.5,22.5 C 45.7828,21.7109 46.2828,21.0442 47,20.5C 47.5281,21.816 47.0281,22.4827 45.5,22.5 Z M 45.5,51.5 C 45.7828,50.7109 46.2828,50.0442 47,49.5C 47.5281,50.816 47.0281,51.4827 45.5,51.5 Z M 45.5,62.5 C 45.7828,61.7109 46.2828,61.0442 47,60.5C 47.5281,61.816 47.0281,62.4827 45.5,62.5 Z"/></g>
</svg>
