<?xml version="1.0" encoding="UTF-8"?>
<!DOCTYPE svg PUBLIC "-//W3C//DTD SVG 1.1//EN" "http://www.w3.org/Graphics/SVG/1.1/DTD/svg11.dtd">
<svg xmlns="http://www.w3.org/2000/svg" version="1.1" width="116px" height="63px" style="shape-rendering:geometricPrecision; text-rendering:geometricPrecision; image-rendering:optimizeQuality; fill-rule:evenodd; clip-rule:evenodd" xmlns:xlink="http://www.w3.org/1999/xlink">
<g><path style="opacity:0.94" fill="#fefffe" d="M 3.5,-0.5 C 39.5,-0.5 75.5,-0.5 111.5,-0.5C 113.167,0.5 114.5,1.83333 115.5,3.5C 115.5,21.8333 115.5,40.1667 115.5,58.5C 114.5,60.1667 113.167,61.5 111.5,62.5C 75.5,62.5 39.5,62.5 3.5,62.5C 1.83333,61.5 0.5,60.1667 -0.5,58.5C -0.5,40.1667 -0.5,21.8333 -0.5,3.5C 0.5,1.83333 1.83333,0.5 3.5,-0.5 Z M 12.5,2.5 C 19.5079,2.33371 26.5079,2.50038 33.5,3C 34.4505,6.05675 34.7839,9.22341 34.5,12.5C 26.8261,12.6664 19.1594,12.4997 11.5,12C 11.0598,9.83768 10.7265,7.67102 10.5,5.5C 11.1925,4.48224 11.8592,3.48224 12.5,2.5 Z M 81.5,2.5 C 88.8333,2.5 96.1667,2.5 103.5,2.5C 104.138,5.76261 104.138,8.92928 103.5,12C 95.8406,12.4997 88.1739,12.6664 80.5,12.5C 80.2529,9.06131 80.5863,5.72797 81.5,2.5 Z M 21.5,15.5 C 22.7479,16.3339 23.4146,17.6672 23.5,19.5C 23.1667,20.8333 22.8333,22.1667 22.5,23.5C 21.52,20.9135 21.1866,18.2469 21.5,15.5 Z M 91.5,15.5 C 92.5862,15.62 93.2528,16.2867 93.5,17.5C 93.1667,18.1667 92.8333,18.8333 92.5,19.5C 91.5713,18.3112 91.238,16.9778 91.5,15.5 Z M 83.5,21.5 C 89.2753,21.7172 95.1086,21.7172 101,21.5C 101.494,23.1341 101.66,24.8008 101.5,26.5C 95.5,26.5 89.5,26.5 83.5,26.5C 83.5,24.8333 83.5,23.1667 83.5,21.5 Z M 18.5,25.5 C 24.1754,24.9125 28.8421,26.7458 32.5,31C 28.8549,34.6887 24.5215,36.3554 19.5,36C 17.2942,32.6773 16.9609,29.1773 18.5,25.5 Z M 71.5,25.5 C 74.1667,25.5 76.8333,25.5 79.5,25.5C 79.5,29.1667 79.5,32.8333 79.5,36.5C 72.2961,36.2829 65.2961,34.9495 58.5,32.5C 57.1667,31.5 57.1667,30.5 58.5,29.5C 62.9924,28.2998 67.3258,26.9665 71.5,25.5 Z M 84.5,28.5 C 91.5997,28.1715 95.5997,28.5048 96.5,29.5C 96.5,30.5 96.5,31.5 96.5,32.5C 95.5997,33.4952 91.5997,33.8285 84.5,33.5C 84.5,31.8333 84.5,30.1667 84.5,28.5 Z M 35.5,29.5 C 41.8333,29.5 48.1667,29.5 54.5,29.5C 54.5,30.5 54.5,31.5 54.5,32.5C 48.1667,32.5 41.8333,32.5 35.5,32.5C 35.5,31.5 35.5,30.5 35.5,29.5 Z M 83.5,35.5 C 89.5,35.5 95.5,35.5 101.5,35.5C 101.66,37.1992 101.494,38.8659 101,40.5C 95.2263,40.047 89.5596,40.047 84,40.5C 83.5065,38.8659 83.3398,37.1992 83.5,35.5 Z M 21.5,38.5 C 22.7479,39.3339 23.4146,40.6672 23.5,42.5C 23.1667,43.8333 22.8333,45.1667 22.5,46.5C 21.52,43.9135 21.1866,41.2469 21.5,38.5 Z M 91.5,42.5 C 92.5862,42.62 93.2528,43.2867 93.5,44.5C 93.1667,45.1667 92.8333,45.8333 92.5,46.5C 91.5713,45.3112 91.238,43.9778 91.5,42.5 Z M 14.5,48.5 C 21.1593,48.9538 27.8259,49.2871 34.5,49.5C 34.5,52.5 34.5,55.5 34.5,58.5C 26.865,59.1847 19.1983,59.018 11.5,58C 11.4121,56.0539 11.0788,54.0539 10.5,52C 11.3471,50.2294 12.6805,49.0627 14.5,48.5 Z M 80.5,49.5 C 88.1667,49.5 95.8333,49.5 103.5,49.5C 103.5,52.5 103.5,55.5 103.5,58.5C 95.7805,58.9361 88.1138,58.9361 80.5,58.5C 80.5,55.5 80.5,52.5 80.5,49.5 Z"/></g>
</svg>
