<?xml version="1.0" encoding="UTF-8"?>
<!DOCTYPE svg PUBLIC "-//W3C//DTD SVG 1.1//EN" "http://www.w3.org/Graphics/SVG/1.1/DTD/svg11.dtd">
<svg xmlns="http://www.w3.org/2000/svg" version="1.1" width="101px" height="96px" style="shape-rendering:geometricPrecision; text-rendering:geometricPrecision; image-rendering:optimizeQuality; fill-rule:evenodd; clip-rule:evenodd" xmlns:xlink="http://www.w3.org/1999/xlink">
<g><path style="opacity:0.894" fill="#fefffe" d="M 61.5,-0.5 C 67.1667,-0.5 72.8333,-0.5 78.5,-0.5C 77.8227,4.80093 77.3227,10.1343 77,15.5C 75.2994,17.4097 73.7994,19.4097 72.5,21.5C 72.8333,22.1667 73.1667,22.8333 73.5,23.5C 76.8563,21.7932 80.1896,20.1265 83.5,18.5C 86.0925,20.2266 88.7591,21.06 91.5,21C 92.8663,23.3818 92.533,25.5485 90.5,27.5C 93.4986,33.1393 96.8319,38.4726 100.5,43.5C 100.5,45.5 100.5,47.5 100.5,49.5C 97.6632,51.2581 94.6632,52.4248 91.5,53C 87.2694,46.9453 83.2694,40.7787 79.5,34.5C 79.1667,34.6667 78.8333,34.8333 78.5,35C 81.014,38.4134 82.014,42.2468 81.5,46.5C 80.5,46.5 79.5,46.5 78.5,46.5C 78.5326,42.8981 77.1993,39.8981 74.5,37.5C 74.1667,38 73.8333,38.5 73.5,39C 75.5094,41.8592 76.8427,45.0259 77.5,48.5C 79.9527,50.9195 82.9527,52.0862 86.5,52C 89.3407,55.1588 88.674,57.4922 84.5,59C 86.7582,63.5413 87.9249,68.3747 88,73.5C 88.4186,74.6721 89.0853,75.6721 90,76.5C 91.0301,83.0407 90.5301,89.3741 88.5,95.5C 82.8333,95.5 77.1667,95.5 71.5,95.5C 70.8592,94.5178 70.1925,93.5178 69.5,92.5C 53.1769,91.3337 36.8435,91.1671 20.5,92C 19.695,93.1127 19.0283,94.2794 18.5,95.5C 12.8333,95.5 7.16667,95.5 1.5,95.5C 1.16667,94.5 0.5,93.8333 -0.5,93.5C -0.5,87.8333 -0.5,82.1667 -0.5,76.5C 1.52773,71.2499 3.1944,65.7499 4.5,60C -1.22012,53.6461 0.446549,50.6461 9.5,51C 11.1506,46.0303 13.8173,41.697 17.5,38C 19.8082,36.1335 22.4749,35.1335 25.5,35C 32.4921,34.5004 39.4921,34.3337 46.5,34.5C 46.5,36.1667 46.5,37.8333 46.5,39.5C 39.1591,39.3337 31.8258,39.5003 24.5,40C 19.746,43.3517 16.9127,47.8517 16,53.5C 19.6742,50.3268 24.0075,48.9935 29,49.5C 31.1667,49.6667 33.3333,49.8333 35.5,50C 38.6891,51.2105 41.8557,52.3772 45,53.5C 53.3788,49.2863 62.2122,48.453 71.5,51C 72.0465,51.9246 72.7132,52.7579 73.5,53.5C 73.8333,53.1667 74.1667,52.8333 74.5,52.5C 72.2503,48.3318 69.7503,44.3318 67,40.5C 65.4157,41.8613 63.5824,42.528 61.5,42.5C 61.728,40.6453 61.0613,39.8119 59.5,40C 59.8985,42.8573 58.5651,45.024 55.5,46.5C 54.4063,45.132 54.7397,43.9653 56.5,43C 54.5568,43.3052 52.5568,43.3052 50.5,43C 51.5505,41.6152 52.8839,40.6152 54.5,40C 53.062,39.7811 51.7287,39.2811 50.5,38.5C 50.7093,37.914 51.0426,37.414 51.5,37C 53.5767,36.8078 55.5767,36.3078 57.5,35.5C 61.2793,32.8552 64.7793,29.8552 68,26.5C 68.8141,24.0982 68.6474,21.7649 67.5,19.5C 65.8513,18.3523 64.3513,17.019 63,15.5C 62.6773,10.1343 62.1773,4.80093 61.5,-0.5 Z M 69.5,37.5 C 70.4734,37.9867 71.4734,38.4867 72.5,39C 70.8425,39.7252 69.8425,39.2252 69.5,37.5 Z M 11.5,66.5 C 24.0782,74.346 23.0782,76.6794 8.5,73.5C 7.16667,71.8333 7.16667,70.1667 8.5,68.5C 9.73867,68.0576 10.7387,67.3909 11.5,66.5 Z M 76.5,67.5 C 81.3148,66.8551 82.9814,68.6885 81.5,73C 77.1679,75.2163 72.8345,75.5496 68.5,74C 71.0534,71.5748 73.7201,69.4081 76.5,67.5 Z M 26.5,77.5 C 38.5,77.5 50.5,77.5 62.5,77.5C 62.5,79.5 62.5,81.5 62.5,83.5C 50.8286,83.6665 39.1619,83.4999 27.5,83C 26.5939,81.3005 26.2606,79.4672 26.5,77.5 Z"/></g>
</svg>
