<?xml version="1.0" encoding="UTF-8"?>
<!DOCTYPE svg PUBLIC "-//W3C//DTD SVG 1.1//EN" "http://www.w3.org/Graphics/SVG/1.1/DTD/svg11.dtd">
<svg xmlns="http://www.w3.org/2000/svg" version="1.1" width="82px" height="82px" style="shape-rendering:geometricPrecision; text-rendering:geometricPrecision; image-rendering:optimizeQuality; fill-rule:evenodd; clip-rule:evenodd" xmlns:xlink="http://www.w3.org/1999/xlink">
<g><path style="opacity:0.892" fill="#fefffe" d="M 31.5,-0.5 C 37.5,-0.5 43.5,-0.5 49.5,-0.5C 65.8333,4.5 76.5,15.1667 81.5,31.5C 81.5,37.5 81.5,43.5 81.5,49.5C 76.5,65.8333 65.8333,76.5 49.5,81.5C 43.5,81.5 37.5,81.5 31.5,81.5C 15.1667,76.5 4.5,65.8333 -0.5,49.5C -0.5,43.5 -0.5,37.5 -0.5,31.5C 4.5,15.1667 15.1667,4.5 31.5,-0.5 Z M 36.5,7.5 C 54.9804,7.32749 66.9804,15.9942 72.5,33.5C 72.2881,35.888 70.9548,36.888 68.5,36.5C 65.6773,35.8607 63.1773,34.5273 61,32.5C 60.1701,38.1959 60.3368,43.8625 61.5,49.5C 65.1858,47.3181 68.8525,47.1515 72.5,49C 68.0857,62.7056 58.7524,70.5389 44.5,72.5C 46.3332,63.1291 51.1666,55.7958 59,50.5C 59.8306,44.1405 59.6639,37.8072 58.5,31.5C 46.1781,28.8793 33.8447,28.8793 21.5,31.5C 21.3338,37.8421 21.5005,44.1754 22,50.5C 29.4708,55.6215 34.3041,62.6215 36.5,71.5C 26.4178,71.5366 18.5845,67.2032 13,58.5C 11.3554,55.3785 9.8554,52.2118 8.5,49C 12.1475,47.1515 15.8142,47.3181 19.5,49.5C 20.6632,43.8625 20.8299,38.1959 20,32.5C 17.8856,34.2954 15.5523,35.6287 13,36.5C 10.7123,36.6105 9.21234,35.6105 8.5,33.5C 12.4423,18.8868 21.7756,10.2201 36.5,7.5 Z M 37.5,36.5 C 46.7665,36.0783 49.7665,40.0783 46.5,48.5C 40.8155,52.9543 36.3155,51.9543 33,45.5C 32.5089,41.4581 34.0089,38.4581 37.5,36.5 Z"/></g>
</svg>
