<?xml version="1.0" encoding="UTF-8"?>
<!DOCTYPE svg PUBLIC "-//W3C//DTD SVG 1.1//EN" "http://www.w3.org/Graphics/SVG/1.1/DTD/svg11.dtd">
<svg xmlns="http://www.w3.org/2000/svg" version="1.1" width="134px" height="94px" style="shape-rendering:geometricPrecision; text-rendering:geometricPrecision; image-rendering:optimizeQuality; fill-rule:evenodd; clip-rule:evenodd" xmlns:xlink="http://www.w3.org/1999/xlink">
<g><path style="opacity:0.781" fill="#fefffe" d="M 14.5,-0.5 C 15.8333,-0.5 17.1667,-0.5 18.5,-0.5C 25.9838,11.481 32.8171,23.8144 39,36.5C 39.5396,38.1346 39.0396,39.4679 37.5,40.5C 36.635,41.5827 35.635,41.7494 34.5,41C 22.6173,33.6953 10.9506,25.5286 -0.5,16.5C -0.5,15.5 -0.5,14.5 -0.5,13.5C 0.473322,12.016 1.80666,11.516 3.5,12C 9.10821,15.2762 14.4415,18.9429 19.5,23C 20.448,23.4828 21.448,23.6495 22.5,23.5C 20.7743,16.7118 17.941,10.3785 14,4.5C 13.3603,2.73498 13.5269,1.06831 14.5,-0.5 Z M 28.5,29.5 C 31.5,29.1667 32.8333,30.5 32.5,33.5C 31.1667,33.5 29.8333,33.5 28.5,33.5C 28.5,32.1667 28.5,30.8333 28.5,29.5 Z M 36.5,38.5 C 34.4362,38.2381 33.1029,37.0714 32.5,35C 34.8411,34.8319 36.1744,35.9986 36.5,38.5 Z"/></g>
<g><path style="opacity:0.776" fill="#fefffe" d="M 114.5,-0.5 C 115.833,-0.5 117.167,-0.5 118.5,-0.5C 118.953,0.458367 119.619,1.2917 120.5,2C 115.908,8.67782 112.575,15.8445 110.5,23.5C 116.907,20.4538 122.907,16.6205 128.5,12C 130.543,11.36 132.21,11.86 133.5,13.5C 133.5,14.5 133.5,15.5 133.5,16.5C 122.049,25.5286 110.383,33.6953 98.5,41C 97.365,41.7494 96.365,41.5827 95.5,40.5C 93.9604,39.4679 93.4604,38.1346 94,36.5C 100.183,23.8144 107.016,11.481 114.5,-0.5 Z M 101.5,29.5 C 102.5,29.5 103.5,29.5 104.5,29.5C 104.5,30.8333 104.5,32.1667 104.5,33.5C 103.167,33.5 101.833,33.5 100.5,33.5C 100.433,32.0413 100.766,30.7079 101.5,29.5 Z M 99.5,35.5 C 99.1898,37.1436 98.1898,38.1436 96.5,38.5C 96.5,36.5 97.5,35.5 99.5,35.5 Z"/></g>
<g><path style="opacity:0.818" fill="#fefffe" d="M 51.5,31.5 C 62.505,31.3335 73.505,31.5002 84.5,32C 85.4558,35.3936 85.7892,38.8936 85.5,42.5C 83.5,42.5 81.5,42.5 79.5,42.5C 79.5,40.8333 79.5,39.1667 79.5,37.5C 71.5,37.5 63.5,37.5 55.5,37.5C 55.5,39.1667 55.5,40.8333 55.5,42.5C 53.5,42.5 51.5,42.5 49.5,42.5C 49.0357,38.4975 49.7024,34.8309 51.5,31.5 Z"/></g>
<g><path style="opacity:0.912" fill="#fefffe" d="M 103.5,93.5 C 79.5,93.5 55.5,93.5 31.5,93.5C 33.5589,81.3035 34.0589,68.9702 33,56.5C 31.3385,52.8816 31.5052,49.2149 33.5,45.5C 34.376,44.7492 35.376,44.2492 36.5,44C 57.1667,43.3333 77.8333,43.3333 98.5,44C 99.624,44.2492 100.624,44.7492 101.5,45.5C 102.123,48.1668 103.123,50.6668 104.5,53C 103.624,54.5848 102.291,55.5848 100.5,56C 101.487,66.4179 101.82,76.9179 101.5,87.5C 69.5069,87.6671 69.5069,88.1671 101.5,89C 103.037,90.1096 103.703,91.6096 103.5,93.5 Z M 39.5,45.5 C 43.1716,45.1826 44.8383,46.8493 44.5,50.5C 42.8333,50.5 41.1667,50.5 39.5,50.5C 39.5,48.8333 39.5,47.1667 39.5,45.5 Z M 91.5,45.5 C 94.9103,45.3838 96.2436,47.0504 95.5,50.5C 93.8333,50.5 92.1667,50.5 90.5,50.5C 90.6287,48.7839 90.962,47.1172 91.5,45.5 Z M 68.5,73.5 C 67.7375,72.7321 66.7375,72.2321 65.5,72C 67.1667,71.3333 68.8333,71.3333 70.5,72C 69.9558,72.7172 69.2891,73.2172 68.5,73.5 Z M 64.5,78.5 C 64.5173,76.9719 65.184,76.4719 66.5,77C 65.9558,77.7172 65.2891,78.2172 64.5,78.5 Z"/></g>
</svg>
